<svg width="31" height="31" viewBox="0 0 31 31" version="1.1" xmlns="http://www.w3.org/2000/svg"><title>icon-5</title><g stroke="none" stroke-width="1" fill="none" fill-rule="evenodd"><g><g><g><g><g><g><path d="M30.624 15.786c0 8.284-6.716 15-15 15-8.284 0-15-6.716-15-15 0-8.284 6.716-15 15-15 8.284 0 15 6.716 15 15" fill="#FFB020"/><path d="M17.327 3.357L4.053 16.632a11.827 11.827 0 0 0 3.53 7.014L24.341 6.888a11.828 11.828 0 0 0-7.014-3.53M26.144 9.357L10.053 25.448a11.78 11.78 0 0 0 5.302 1.456l12.244-12.245a11.78 11.78 0 0 0-1.455-5.302" fill="#FFC300"/></g></g></g></g></g></g></g></svg>